<svg xmlns="http://www.w3.org/2000/svg" viewBox="0 0 100 100">
  <rect width="100" height="100" rx="20" fill="#14311f" />
  <polyline points="24,32 40,22 56,31 74,19" stroke="#8BC34A" stroke-width="4" stroke-linecap="round" stroke-linejoin="round" fill="none" />
  <circle cx="24" cy="32" r="4" fill="#8BC34A" />
  <circle cx="40" cy="22" r="4" fill="#8BC34A" />
  <circle cx="56" cy="31" r="4" fill="#8BC34A" />
  <circle cx="74" cy="19" r="4.5" fill="#8BC34A" />
  <path d="M18 34 L30 74 L50 48 L70 74 L82 34" stroke="#7CB342" stroke-width="9" stroke-linecap="round" stroke-linejoin="round" fill="none" />
  <circle cx="50" cy="55" r="12" fill="#F3EEE0" />
  <g stroke="#3f6b2f" stroke-width="1.4" fill="none">
    <circle cx="50" cy="55" r="12" />
    <ellipse cx="50" cy="55" rx="5" ry="12" />
    <line x1="38" y1="55" x2="62" y2="55" />
    <line x1="50" y1="43" x2="50" y2="67" />
    <path d="M40 49 Q50 53 60 49" />
    <path d="M40 61 Q50 57 60 61" />
  </g>
</svg>
